<svg xmlns="http://www.w3.org/2000/svg" style="display:none" aria-hidden="true" focusable="false">

    <symbol id="icon-mastercard" viewBox="0 0 48 32">
      <circle cx="19" cy="16" r="11" fill="#EB001B"/>
      <circle cx="29" cy="16" r="11" fill="#F79E1B"/>
      <path
        fill="#FF5F00"
        d="M24 7.2a11 11 0 0 0 0 17.6 11 11 0 0 0 0-17.6Z"/>
    </symbol>

    <symbol id="icon-amex" viewBox="0 0 48 32">
      <rect width="48" height="32" rx="4" fill="#2E77BC"/>
      <text
        x="24"
        y="14"
        text-anchor="middle"
        font-family="Arial, sans-serif"
        font-size="6"
        font-weight="700"
        fill="#fff">
        AMERICAN
      </text>
      <text
        x="24"
        y="21"
        text-anchor="middle"
        font-family="Arial, sans-serif"
        font-size="6"
        font-weight="700"
        fill="#fff">
        EXPRESS
      </text>
    </symbol>

    <symbol id="icon-paypal" viewBox="0 0 48 32">
      <path
        fill="#003087"
        d="M17.2 7h6.5c4.4 0 6.8 2.1 6.2 5.8-.6 3.7-3.5 5.7-7.6 5.7h-2.6l-1.1 6.5h-4.8L17.2 7Z"/>

      <path
        fill="#009CDE"
        d="M21.2 5h6.3c4.4 0 6.8 2.1 6.2 5.8-.5 3.1-2.7 5.1-5.8 5.6l.2-1.1c.6-3.7-1.8-5.8-6.2-5.8h-2.1L21.2 5Z"/>
    </symbol>

    <symbol id="icon-apple-pay" viewBox="0 0 48 32">
      <text
        x="24"
        y="21"
        text-anchor="middle"
        font-family="Arial, sans-serif"
        font-size="10"
        font-weight="700"
        fill="#000">
         Pay
      </text>
    </symbol>



    <symbol id="icon-visa" viewBox="0 0 48 32">
      <text
        x="24"
        y="21"
        text-anchor="middle"
        font-family="Arial, sans-serif"
        font-size="12"
        font-weight="700"
        font-style="italic"
        fill="#1434CB">
        VISA
      </text>
    </symbol>
</svg>
