<svg xmlns="http://www.w3.org/2000/svg" style="display:none" aria-hidden="true" focusable="false">
  <symbol id="icon-star" viewBox="0 -960 960 960" fill="currentColor">
    <path d="m275.93-189.58 54.8-228.57L149.7-571.61l237.07-20.62L480-807.69l93.42 216.46 236.88 19.62-181.04 153.46 54.98 228.57-204.16-121.35-204.15 121.35Z"/>
  </symbol>

  <symbol id="icon-void-star" viewBox="0 -960 960 960" fill="currentColor">
    <path d="m354-287 126-76 126 77-33-144 111-96-146-13-58-136-58 135-146 13 111 97-33 143ZM233-120l65-281L80-590l288-25 112-265 112 265 288 25-218 189 65 281-247-149-247 149Zm247-350Z"/>
  </symbol>

  <symbol id="audio-icon" viewBox="0 0 48 48" fill="none" stroke="currentColor" stroke-width="2" stroke-linecap="round" stroke-linejoin="round">
    <path d="M9 22V19a15 15 0 0 1 30 0v3"/>
    <rect x="6" y="22" width="8" height="14" rx="4"/>
    <rect x="34" y="22" width="8" height="14" rx="4"/>
  </symbol>

  <symbol id="computers-icon" viewBox="0 0 48 48" fill="none" stroke="currentColor" stroke-width="2" stroke-linecap="round" stroke-linejoin="round">
    <rect x="9" y="10" width="30" height="20" rx="2"/>
    <path d="M6 34h36"/>
    <path d="M21 30h6"/>
  </symbol>

  <symbol id="smartphones-icon" viewBox="0 0 48 48" fill="none" stroke="currentColor" stroke-width="2" stroke-linecap="round" stroke-linejoin="round">
    <rect x="14" y="6" width="20" height="36" rx="4"/>
    <path d="M21 11h6"/>
    <path d="M22.5 37h3"/>
  </symbol>

  <symbol id="wearables-icon" viewBox="0 0 48 48" fill="none" stroke="currentColor" stroke-width="2" stroke-linecap="round" stroke-linejoin="round">
    <path d="M18 10h12a2 2 0 0 1 2 2v4h-16v-4a2 2 0 0 1 2-2z"/>
    <path d="M18 32h12a2 2 0 0 0 2 2v4h-16v-4a2 2 0 0 0 2-2z"/>
    <path d="M16 32v4a2 2 0 0 0 2 2h12a2 2 0 0 0 2-2v-4"/>
    <rect x="14" y="16" width="20" height="16" rx="4"/>
    <path d="M21 24h6"/>
    <path d="M34 21v6a2 2 0 0 0 2-2v-2a2 2 0 0 0-2-2z"/>
  </symbol>

  <symbol id="accessories-icon" viewBox="0 0 48 48" fill="none" stroke="currentColor" stroke-width="2" stroke-linecap="round" stroke-linejoin="round">
    <path d="M18 16v-3a6 6 0 0 1 12 0v3"/>
    <rect x="10" y="16" width="28" height="22" rx="4"/>
    <path d="M21 26h6"/>
  </symbol>

  <symbol id="icon-premium-quality" viewBox="0 0 24 24" fill="none" stroke="currentColor" stroke-width="1.5" stroke-linecap="round" stroke-linejoin="round">
    <path d="M12 2L4.5 5v6c0 5.5 3.5 9.7 7.5 11 4-1.3 7.5-5.5 7.5-11V5L12 2z"/>
    <path d="M8.5 12.5l2.5 2.5L16 10"/>
  </symbol>

  <symbol id="icon-free-shipping" viewBox="0 0 24 24" fill="none" stroke="currentColor" stroke-width="1.5" stroke-linecap="round" stroke-linejoin="round">
    <path d="M3 13h4"/>
    <path d="M1 17h6"/>
    <path d="M5 9h2"/>
    <path d="M7 6h8v9H7z"/>
    <path d="M15 9h4l2 3v3h-6"/>
    <circle cx="9" cy="18" r="2"/>
    <circle cx="18" cy="18" r="2"/>
  </symbol>

  <symbol id="icon-easy-returns" viewBox="0 0 24 24" fill="none" stroke="currentColor" stroke-width="1.5" stroke-linecap="round" stroke-linejoin="round">
    <path d="M20 12a8 8 0 0 1-14 5.5"/>
    <polyline points="4 20 4 14 10 14"/>
    <path d="M4 12A8 8 0 0 1 20 6.5"/>
    <polyline points="20 4 20 10 14 10"/>
  </symbol>

  <symbol id="icon-customer-support" viewBox="0 0 24 24" fill="none" stroke="currentColor" stroke-width="1.5" stroke-linecap="round" stroke-linejoin="round">
    <path d="M4 12a8 8 0 0 1 16 0"/>
    <rect x="2" y="11" width="3" height="7" rx="1.5"/>
    <rect x="19" y="11" width="3" height="7" rx="1.5"/>
    <path d="M21 18c0 2.5-2 4-4.5 4H14"/>
    <circle cx="12" cy="22" r="1"/>
  </symbol>

  <symbol id="icon-instagram" viewBox="0 0 24 24" fill="none" stroke="currentColor" stroke-width="2" stroke-linecap="round" stroke-linejoin="round">
    <rect x="2" y="2" width="20" height="20" rx="5"/>
    <circle cx="12" cy="12" r="5"/>
    <circle cx="17.5" cy="6.5" r="1.5" fill="currentColor" stroke="none"/>
  </symbol>

  <symbol id="icon-twitter" viewBox="0 0 24 24" fill="currentColor">
    <path d="M18.901 2H21l-4.59 5.248L22 22h-4.406l-3.45-4.508L10.2 22H8.1l4.91-5.612L2 2h4.518l3.117 4.092L13.4 2h5.5zM17.36 20h1.22L5.96 4H4.66z"/>
  </symbol>

  <symbol id="icon-youtube" viewBox="0 0 24 24" fill="currentColor">
    <path d="M22 12s0-3.5-.45-5.18a2.8 2.8 0 0 0-1.97-1.97C17.9 4.4 12 4.4 12 4.4s-5.9 0-7.58.45A2.8 2.8 0 0 0 2.45 6.82C2 8.5 2 12 2 12s0 3.5.45 5.18a2.8 2.8 0 0 0 1.97 1.97C6.1 19.6 12 19.6 12 19.6s5.9 0 7.58-.45a2.8 2.8 0 0 0 1.97-1.97C22 15.5 22 12 22 12z"/>
    <path fill="#FFFFFF" d="M10 9l5 3-5 3z"/>
  </symbol>

  <symbol id="icon-facebook" viewBox="0 0 24 24" fill="currentColor">
    <path d="M13.5 22v-8h2.7l.4-3h-3.1V9.1c0-.87.24-1.46 1.49-1.46H17V4.95c-.33-.04-1.47-.14-2.8-.14-2.77 0-4.67 1.69-4.67 4.8V11H7v3h2.53v8h3.97z"/>
  </symbol>
</svg>
